#N canvas 795 129 450 591 12;
#X obj 40 21 inlet;
#X obj 40 67 sel 130 128 129;
#X obj 42 210 spigot;
#X obj 40 154 == 1;
#X obj 88 155 == 2;
#X obj 136 156 == 3;
#X obj 180 212 spigot;
#X obj 363 214 spigot;
#X obj 42 248 sel 255;
#X obj 179 249 sel 255;
#X obj 41 469 pack s f;
#X msg 88 275 append \$1;
#X obj 42 274 t;
#X msg 225 275 append \$1;
#X obj 179 274 t;
#X obj 179 350 unpack f f;
#X obj 246 376 << 3;
#X obj 179 407 +;
#X obj 42 353 list tosymbol;
#X obj 41 544 outlet;
#X obj 40 109 int 1;
#X obj 89 108 int 2;
#X obj 135 109 int 3;
#X obj 42 322 list store;
#X obj 179 322 list store;
#X obj 41 504 route list;
#X connect 0 0 1 0;
#X connect 1 0 20 0;
#X connect 1 1 21 0;
#X connect 1 2 22 0;
#X connect 1 3 2 0;
#X connect 1 3 6 0;
#X connect 1 3 7 0;
#X connect 2 0 8 0;
#X connect 3 0 2 1;
#X connect 4 0 6 1;
#X connect 5 0 7 1;
#X connect 6 0 9 0;
#X connect 7 0 10 1;
#X connect 8 0 12 0;
#X connect 8 1 11 0;
#X connect 9 0 14 0;
#X connect 9 1 13 0;
#X connect 10 0 25 0;
#X connect 11 0 23 0;
#X connect 12 0 23 1;
#X connect 12 1 23 0;
#X connect 13 0 24 0;
#X connect 14 0 24 1;
#X connect 14 1 24 0;
#X connect 15 0 17 0;
#X connect 15 1 16 0;
#X connect 16 0 17 1;
#X connect 17 0 10 1;
#X connect 18 0 10 0;
#X connect 20 0 3 0;
#X connect 20 0 4 0;
#X connect 20 0 5 0;
#X connect 21 0 4 0;
#X connect 21 0 3 0;
#X connect 21 0 5 0;
#X connect 22 0 5 0;
#X connect 22 0 3 0;
#X connect 22 0 4 0;
#X connect 23 0 18 0;
#X connect 24 0 15 0;
#X connect 25 0 19 0;
