#N canvas 406 210 460 437 12;
#X obj 19 84 comport 2 115200;
#X msg 19 26 ports;
#X obj 128 115 print;
#X msg 65 25 close;
#X msg 111 25 open 2;
#X obj 19 148 Cereal-Parser;
#X obj 73 222 tgl 19 0 empty empty empty 0 -10 0 12 #fcfcfc #000000 #000000 0 1;
#X obj 19 223 vsl 19 162 0 1023 0 0 empty empty empty 0 -9 0 12 #fcfcfc #000000 #000000 0 1;
#X text 144 83 you may need to change the specified port;
#X text 127 156 available serial ports in the console;
#X text 126 139 click the ports button above to see a list of;
#X text 168 354 Cereal Demo for Cereal Arduino Library;
#X text 287 375 - Eric Sheffield 2023;
#X obj 19 184 route pot button;
#X connect 0 0 5 0;
#X connect 0 1 2 0;
#X connect 1 0 0 0;
#X connect 3 0 0 0;
#X connect 4 0 0 0;
#X connect 5 0 13 0;
#X connect 13 0 7 0;
#X connect 13 1 6 0;
